<svg width="60" height="10" viewBox="0 0 60 10" fill="none" xmlns="http://www.w3.org/2000/svg">
<path d="M4.37695 6.43945V0.46875H5.8418V6.43945C5.8418 7.00586 5.7207 7.48828 5.47852 7.88672C5.23633 8.28516 4.90625 8.58984 4.48828 8.80078C4.07031 9.01172 3.5957 9.11719 3.06445 9.11719C2.52148 9.11719 2.03906 9.02539 1.61719 8.8418C1.19922 8.6582 0.871094 8.37695 0.632812 7.99805C0.394531 7.61914 0.275391 7.13867 0.275391 6.55664H1.75195C1.75195 6.89258 1.80469 7.16406 1.91016 7.37109C2.01953 7.57422 2.17188 7.72266 2.36719 7.81641C2.56641 7.90625 2.79883 7.95117 3.06445 7.95117C3.31836 7.95117 3.54297 7.89453 3.73828 7.78125C3.9375 7.66406 4.09375 7.49414 4.20703 7.27148C4.32031 7.04492 4.37695 6.76758 4.37695 6.43945ZM7.125 5.90039V5.76562C7.125 5.30859 7.19141 4.88477 7.32422 4.49414C7.45703 4.09961 7.64844 3.75781 7.89844 3.46875C8.15234 3.17578 8.46094 2.94922 8.82422 2.78906C9.19141 2.625 9.60547 2.54297 10.0664 2.54297C10.5312 2.54297 10.9453 2.625 11.3086 2.78906C11.6758 2.94922 11.9863 3.17578 12.2402 3.46875C12.4941 3.75781 12.6875 4.09961 12.8203 4.49414C12.9531 4.88477 13.0195 5.30859 13.0195 5.76562V5.90039C13.0195 6.35742 12.9531 6.78125 12.8203 7.17188C12.6875 7.5625 12.4941 7.9043 12.2402 8.19727C11.9863 8.48633 11.6777 8.71289 11.3145 8.87695C10.9512 9.03711 10.5391 9.11719 10.0781 9.11719C9.61328 9.11719 9.19727 9.03711 8.83008 8.87695C8.4668 8.71289 8.1582 8.48633 7.9043 8.19727C7.65039 7.9043 7.45703 7.5625 7.32422 7.17188C7.19141 6.78125 7.125 6.35742 7.125 5.90039ZM8.53711 5.76562V5.90039C8.53711 6.18555 8.56641 6.45508 8.625 6.70898C8.68359 6.96289 8.77539 7.18555 8.90039 7.37695C9.02539 7.56836 9.18555 7.71875 9.38086 7.82812C9.57617 7.9375 9.80859 7.99219 10.0781 7.99219C10.3398 7.99219 10.5664 7.9375 10.7578 7.82812C10.9531 7.71875 11.1133 7.56836 11.2383 7.37695C11.3633 7.18555 11.4551 6.96289 11.5137 6.70898C11.5762 6.45508 11.6074 6.18555 11.6074 5.90039V5.76562C11.6074 5.48438 11.5762 5.21875 11.5137 4.96875C11.4551 4.71484 11.3613 4.49023 11.2324 4.29492C11.1074 4.09961 10.9473 3.94727 10.752 3.83789C10.5605 3.72461 10.332 3.66797 10.0664 3.66797C9.80078 3.66797 9.57031 3.72461 9.375 3.83789C9.18359 3.94727 9.02539 4.09961 8.90039 4.29492C8.77539 4.49023 8.68359 4.71484 8.625 4.96875C8.56641 5.21875 8.53711 5.48438 8.53711 5.76562ZM15.5977 0V9H14.1914V0H15.5977ZM15.3516 5.5957L14.8945 5.58984C14.8984 5.15234 14.959 4.74805 15.0762 4.37695C15.1973 4.00586 15.3652 3.68359 15.5801 3.41016C15.7988 3.13281 16.0605 2.91992 16.3652 2.77148C16.6699 2.61914 17.0078 2.54297 17.3789 2.54297C17.6914 2.54297 17.9727 2.58594 18.2227 2.67188C18.4766 2.75781 18.6953 2.89648 18.8789 3.08789C19.0625 3.27539 19.2012 3.52148 19.2949 3.82617C19.3926 4.12695 19.4414 4.49414 19.4414 4.92773V9H18.0234V4.91602C18.0234 4.61133 17.9785 4.36914 17.8887 4.18945C17.8027 4.00977 17.6758 3.88086 17.5078 3.80273C17.3398 3.7207 17.1348 3.67969 16.8926 3.67969C16.6387 3.67969 16.4141 3.73047 16.2188 3.83203C16.0273 3.93359 15.8672 4.07227 15.7383 4.24805C15.6094 4.42383 15.5117 4.62695 15.4453 4.85742C15.3828 5.08789 15.3516 5.33398 15.3516 5.5957ZM22.2715 4.01367V9H20.8594V2.66016H22.1895L22.2715 4.01367ZM22.0195 5.5957L21.5625 5.58984C21.5664 5.14062 21.6289 4.72852 21.75 4.35352C21.875 3.97852 22.0469 3.65625 22.2656 3.38672C22.4883 3.11719 22.7539 2.91016 23.0625 2.76562C23.3711 2.61719 23.7148 2.54297 24.0938 2.54297C24.3984 2.54297 24.6738 2.58594 24.9199 2.67188C25.1699 2.75391 25.3828 2.88867 25.5586 3.07617C25.7383 3.26367 25.875 3.50781 25.9688 3.80859C26.0625 4.10547 26.1094 4.4707 26.1094 4.9043V9H24.6914V4.89844C24.6914 4.59375 24.6465 4.35352 24.5566 4.17773C24.4707 3.99805 24.3438 3.87109 24.1758 3.79688C24.0117 3.71875 23.8066 3.67969 23.5605 3.67969C23.3184 3.67969 23.1016 3.73047 22.9102 3.83203C22.7188 3.93359 22.5566 4.07227 22.4238 4.24805C22.2949 4.42383 22.1953 4.62695 22.125 4.85742C22.0547 5.08789 22.0195 5.33398 22.0195 5.5957ZM35.168 6.80273C35.168 6.62695 35.1406 6.4707 35.0859 6.33398C35.0352 6.19727 34.9434 6.07227 34.8105 5.95898C34.6777 5.8457 34.4902 5.73633 34.248 5.63086C34.0098 5.52148 33.7051 5.41016 33.334 5.29688C32.9277 5.17188 32.5527 5.0332 32.209 4.88086C31.8691 4.72461 31.5723 4.54492 31.3184 4.3418C31.0645 4.13477 30.8672 3.89844 30.7266 3.63281C30.5859 3.36328 30.5156 3.05273 30.5156 2.70117C30.5156 2.35352 30.5879 2.03711 30.7324 1.75195C30.8809 1.4668 31.0898 1.2207 31.3594 1.01367C31.6328 0.802734 31.9551 0.640625 32.3262 0.527344C32.6973 0.410156 33.1074 0.351562 33.5566 0.351562C34.1895 0.351562 34.7344 0.46875 35.1914 0.703125C35.6523 0.9375 36.0059 1.25195 36.252 1.64648C36.502 2.04102 36.627 2.47656 36.627 2.95312H35.168C35.168 2.67188 35.1074 2.42383 34.9863 2.20898C34.8691 1.99023 34.6895 1.81836 34.4473 1.69336C34.209 1.56836 33.9062 1.50586 33.5391 1.50586C33.1914 1.50586 32.9023 1.55859 32.6719 1.66406C32.4414 1.76953 32.2695 1.91211 32.1562 2.0918C32.043 2.27148 31.9863 2.47461 31.9863 2.70117C31.9863 2.86133 32.0234 3.00781 32.0977 3.14062C32.1719 3.26953 32.2852 3.39062 32.4375 3.50391C32.5898 3.61328 32.7812 3.7168 33.0117 3.81445C33.2422 3.91211 33.5137 4.00586 33.8262 4.0957C34.2988 4.23633 34.7109 4.39258 35.0625 4.56445C35.4141 4.73242 35.707 4.92383 35.9414 5.13867C36.1758 5.35352 36.3516 5.59766 36.4688 5.87109C36.5859 6.14062 36.6445 6.44727 36.6445 6.79102C36.6445 7.15039 36.5723 7.47461 36.4277 7.76367C36.2832 8.04883 36.0762 8.29297 35.8066 8.49609C35.541 8.69531 35.2207 8.84961 34.8457 8.95898C34.4746 9.06445 34.0605 9.11719 33.6035 9.11719C33.1934 9.11719 32.7891 9.0625 32.3906 8.95312C31.9961 8.84375 31.6367 8.67773 31.3125 8.45508C30.9883 8.22852 30.7305 7.94727 30.5391 7.61133C30.3477 7.27148 30.252 6.875 30.252 6.42188H31.7227C31.7227 6.69922 31.7695 6.93555 31.8633 7.13086C31.9609 7.32617 32.0957 7.48633 32.2676 7.61133C32.4395 7.73242 32.6387 7.82227 32.8652 7.88086C33.0957 7.93945 33.3418 7.96875 33.6035 7.96875C33.9473 7.96875 34.2344 7.91992 34.4648 7.82227C34.6992 7.72461 34.875 7.58789 34.9922 7.41211C35.1094 7.23633 35.168 7.0332 35.168 6.80273ZM39.2051 4.01367V9H37.793V2.66016H39.123L39.2051 4.01367ZM38.9531 5.5957L38.4961 5.58984C38.5 5.14062 38.5625 4.72852 38.6836 4.35352C38.8086 3.97852 38.9805 3.65625 39.1992 3.38672C39.4219 3.11719 39.6875 2.91016 39.9961 2.76562C40.3047 2.61719 40.6484 2.54297 41.0273 2.54297C41.332 2.54297 41.6074 2.58594 41.8535 2.67188C42.1035 2.75391 42.3164 2.88867 42.4922 3.07617C42.6719 3.26367 42.8086 3.50781 42.9023 3.80859C42.9961 4.10547 43.043 4.4707 43.043 4.9043V9H41.625V4.89844C41.625 4.59375 41.5801 4.35352 41.4902 4.17773C41.4043 3.99805 41.2773 3.87109 41.1094 3.79688C40.9453 3.71875 40.7402 3.67969 40.4941 3.67969C40.252 3.67969 40.0352 3.73047 39.8438 3.83203C39.6523 3.93359 39.4902 4.07227 39.3574 4.24805C39.2285 4.42383 39.1289 4.62695 39.0586 4.85742C38.9883 5.08789 38.9531 5.33398 38.9531 5.5957ZM44.2148 5.90039V5.76562C44.2148 5.30859 44.2812 4.88477 44.4141 4.49414C44.5469 4.09961 44.7383 3.75781 44.9883 3.46875C45.2422 3.17578 45.5508 2.94922 45.9141 2.78906C46.2812 2.625 46.6953 2.54297 47.1562 2.54297C47.6211 2.54297 48.0352 2.625 48.3984 2.78906C48.7656 2.94922 49.0762 3.17578 49.3301 3.46875C49.584 3.75781 49.7773 4.09961 49.9102 4.49414C50.043 4.88477 50.1094 5.30859 50.1094 5.76562V5.90039C50.1094 6.35742 50.043 6.78125 49.9102 7.17188C49.7773 7.5625 49.584 7.9043 49.3301 8.19727C49.0762 8.48633 48.7676 8.71289 48.4043 8.87695C48.041 9.03711 47.6289 9.11719 47.168 9.11719C46.7031 9.11719 46.2871 9.03711 45.9199 8.87695C45.5566 8.71289 45.248 8.48633 44.9941 8.19727C44.7402 7.9043 44.5469 7.5625 44.4141 7.17188C44.2812 6.78125 44.2148 6.35742 44.2148 5.90039ZM45.627 5.76562V5.90039C45.627 6.18555 45.6562 6.45508 45.7148 6.70898C45.7734 6.96289 45.8652 7.18555 45.9902 7.37695C46.1152 7.56836 46.2754 7.71875 46.4707 7.82812C46.666 7.9375 46.8984 7.99219 47.168 7.99219C47.4297 7.99219 47.6562 7.9375 47.8477 7.82812C48.043 7.71875 48.2031 7.56836 48.3281 7.37695C48.4531 7.18555 48.5449 6.96289 48.6035 6.70898C48.666 6.45508 48.6973 6.18555 48.6973 5.90039V5.76562C48.6973 5.48438 48.666 5.21875 48.6035 4.96875C48.5449 4.71484 48.4512 4.49023 48.3223 4.29492C48.1973 4.09961 48.0371 3.94727 47.8418 3.83789C47.6504 3.72461 47.4219 3.66797 47.1562 3.66797C46.8906 3.66797 46.6602 3.72461 46.4648 3.83789C46.2734 3.94727 46.1152 4.09961 45.9902 4.29492C45.8652 4.49023 45.7734 4.71484 45.7148 4.96875C45.6562 5.21875 45.627 5.48438 45.627 5.76562ZM53.0156 7.59375L54.4805 2.66016H55.3828L55.1367 4.13672L53.6602 9H52.8516L53.0156 7.59375ZM52.1543 2.66016L53.2969 7.61719L53.3906 9H52.4883L50.7715 2.66016H52.1543ZM56.7539 7.55859L57.8613 2.66016H59.2383L57.5273 9H56.625L56.7539 7.55859ZM55.5352 2.66016L56.9824 7.53516L57.1641 9H56.3555L54.8613 4.13086L54.6152 2.66016H55.5352Z" fill="white"/>
</svg>
